<svg width="12" height="12" viewBox="0 0 12 12" version="1.1" xmlns="http://www.w3.org/2000/svg" xmlns:xlink="http://www.w3.org/1999/xlink">
<title>Vector 3.2</title>
<desc>Created using Figma</desc>
<g id="Canvas" transform="translate(-13858 -4230)">
<g id="Vector 3.2">
<use xlink:href="#path0_stroke" transform="translate(13859 4231)"/>
</g>
</g>
<defs>
<path id="path0_stroke" d="M 0.577091 3.15789L 0.232068 2.79601L 0.577091 3.15789ZM 0.57683 7.36842L 0.200032 7.69709L 0.57683 7.36842ZM 3.33699 9.47368L 3.4747 9.95434L 3.33699 9.47368ZM 7.02331 -0.46718C 6.09632 -0.113658 4.65123 0.469204 3.324 1.07093C 2.66073 1.37164 2.02109 1.67968 1.48803 1.96816C 0.969009 2.24905 0.506002 2.53484 0.232068 2.79601L 0.922115 3.51978C 1.08981 3.3599 1.44565 3.12815 1.96399 2.84763C 2.46829 2.57471 3.08452 2.27748 3.73692 1.9817C 5.04105 1.39044 6.46652 0.815413 7.37964 0.46718L 7.02331 -0.46718ZM 0.232068 2.79601C 0.153045 2.87135 0.0267981 3.0037 -0.0238938 3.18384C -0.0539812 3.29076 -0.0626963 3.43534 0.00508873 3.58289C 0.0709384 3.72622 0.180269 3.80957 0.265427 3.85467C 0.415187 3.934 0.579623 3.94344 0.677641 3.94466C 0.794796 3.94611 0.925109 3.93466 1.05859 3.91648C 1.58605 3.84464 2.37873 3.63628 3.21267 3.37125C 4.05401 3.10387 4.96719 2.76919 5.7442 2.43246C 6.13251 2.26417 6.49256 2.0929 6.79516 1.92679C 7.08957 1.76518 7.36022 1.59212 7.5465 1.41451L 6.85645 0.69075C 6.76671 0.776306 6.58884 0.899291 6.31396 1.05018C 6.04728 1.19657 5.71729 1.35425 5.34656 1.51491C 4.60547 1.83608 3.72456 2.15929 2.9098 2.41822C 2.08764 2.67951 1.36224 2.86589 0.923637 2.92563C 0.815608 2.94034 0.738909 2.94534 0.690023 2.94473C 0.622 2.94389 0.661367 2.93278 0.733497 2.97098C 0.779841 2.99553 0.862216 3.05318 0.91378 3.16542C 0.967279 3.28187 0.956946 3.38995 0.938719 3.45473C 0.911747 3.55057 0.86313 3.57601 0.922115 3.51978L 0.232068 2.79601ZM 7.5465 1.41451C 7.59403 1.3692 7.64901 1.3111 7.69423 1.24232C 7.72884 1.18969 7.818 1.04255 7.79268 0.845413C 7.75955 0.587418 7.56963 0.456518 7.44398 0.408626C 7.33559 0.367312 7.23273 0.365404 7.17601 0.366702C 6.95463 0.371767 6.63329 0.462036 6.30973 0.570204C 5.61813 0.801405 4.61327 1.22244 3.59899 1.72261C 2.58667 2.22182 1.53729 2.81338 0.768137 3.39141C 0.386524 3.67819 0.047551 3.98098 -0.180642 4.28658C -0.395637 4.57451 -0.601102 4.98783 -0.447084 5.42822L 0.496853 5.0981C 0.512819 5.14375 0.462585 5.09654 0.620629 4.88488C 0.765474 4.6909 1.01735 4.45503 1.36891 4.19083C 2.06611 3.66688 3.0524 3.10713 4.04126 2.61949C 5.02816 2.13282 5.98999 1.73149 6.62678 1.51861C 6.78517 1.46566 6.91795 1.42623 7.0225 1.40024C 7.07463 1.38727 7.11654 1.37845 7.14889 1.37294C 7.16488 1.37022 7.17722 1.36853 7.18627 1.36753C 7.19552 1.36651 7.19943 1.36643 7.19888 1.36644C 7.19886 1.36644 7.18979 1.36671 7.17419 1.36488C 7.15986 1.3632 7.12818 1.35843 7.08782 1.34305C 6.999 1.3092 6.83005 1.20033 6.80083 0.972792C 6.77942 0.806112 6.85544 0.697841 6.85868 0.692911C 6.87254 0.671834 6.87792 0.670275 6.85645 0.69075L 7.5465 1.41451ZM -0.447084 5.42822C -0.385996 5.60289 -0.282921 5.76344 -0.12656 5.88388C 0.0285343 6.00335 0.204529 6.0591 0.373346 6.07699C 0.690572 6.11059 1.03335 6.01588 1.34623 5.89305C 1.9855 5.64208 2.78538 5.15367 3.60531 4.6325C 4.44398 4.09942 5.32384 3.51843 6.17295 3.03269C 7.0299 2.54246 7.7964 2.18499 8.39893 2.0701L 8.21162 1.0878C 7.43407 1.23606 6.54451 1.66807 5.6764 2.16468C 4.80046 2.66578 3.88627 3.269 3.06888 3.78855C 2.23277 4.32001 1.51459 4.75265 0.980795 4.96221C 0.707132 5.06965 0.549628 5.09007 0.478687 5.08255C 0.45342 5.07987 0.463362 5.07601 0.483668 5.09165C 0.50524 5.10827 0.50479 5.12079 0.496853 5.0981L -0.447084 5.42822ZM 8.39893 2.0701C 8.54601 2.04205 8.56775 2.06207 8.52782 2.04847C 8.49777 2.03824 8.44203 2.0109 8.39345 1.94941C 8.34442 1.88733 8.32895 1.8237 8.32572 1.78458C 8.32117 1.72933 8.34013 1.73543 8.29013 1.83726C 8.24708 1.92496 8.17301 2.04326 8.06222 2.19103C 7.61404 2.78885 6.7313 3.65204 5.69323 4.50114C 4.65895 5.34715 3.5101 6.14675 2.54794 6.63162C 2.06318 6.8759 1.6566 7.02438 1.35231 7.0727C 1.0326 7.12347 0.960213 7.0473 0.953629 7.03975L 0.200032 7.69709C 0.54924 8.09744 1.07147 8.12982 1.50914 8.06032C 1.96224 7.98837 2.47582 7.78775 2.99796 7.52463C 4.04958 6.99469 5.26142 6.14627 6.32637 5.27518C 7.38754 4.40717 8.34258 3.48418 8.86234 2.79088C 8.99354 2.61587 9.1071 2.44233 9.1878 2.27795C 9.26156 2.1277 9.34039 1.92147 9.32235 1.70246C 9.31238 1.58147 9.27182 1.44811 9.17816 1.32954C 9.08496 1.21156 8.96506 1.14097 8.85013 1.10184C 8.64045 1.03045 8.40956 1.05005 8.21162 1.0878L 8.39893 2.0701ZM 0.953629 7.03975C 1.0276 7.12456 1.03826 7.24054 1.01615 7.31381C 1.00464 7.35194 0.996905 7.33861 1.06103 7.27279C 1.18339 7.14718 1.42468 6.97306 1.78936 6.76334C 2.50475 6.35193 3.55543 5.88144 4.66592 5.44926C 5.77331 5.01828 6.91834 4.63383 7.81423 4.39077C 8.26427 4.26867 8.63779 4.18602 8.90671 4.14891C 9.04298 4.1301 9.13404 4.12566 9.18658 4.12816C 9.21271 4.1294 9.21443 4.13177 9.20041 4.12791C 9.19058 4.12521 9.12921 4.10796 9.06432 4.04609L 9.75436 3.32233C 9.65497 3.22756 9.54243 3.18488 9.4659 3.1638C 9.38517 3.14157 9.30464 3.13265 9.2341 3.12929C 9.09331 3.12259 8.93338 3.13575 8.76999 3.1583C 8.43958 3.2039 8.01909 3.29904 7.55239 3.42566C 6.61481 3.68003 5.43547 4.0767 4.30324 4.51735C 3.1741 4.95679 2.06991 5.44843 1.29084 5.89646C 0.908285 6.11646 0.567442 6.34638 0.34473 6.575C 0.236314 6.68629 0.115303 6.83761 0.0587825 7.02493C -0.00833952 7.24738 0.025562 7.49707 0.200032 7.69709L 0.953629 7.03975ZM 9.06432 4.04609C 8.92051 3.90898 8.93811 3.73663 8.95484 3.67925C 8.96564 3.64223 8.97313 3.64902 8.92545 3.70875C 8.83718 3.81933 8.66442 3.984 8.40268 4.19659C 7.88861 4.61412 7.12954 5.13853 6.3042 5.67224C 4.65065 6.74152 2.80704 7.79973 2.28484 8.04866L 2.71516 8.95134C 3.29703 8.67396 5.1841 7.58743 6.84721 6.51197C 7.6802 5.97331 8.47596 5.42536 9.03313 4.97282C 9.30701 4.75037 9.54896 4.53058 9.70701 4.33258C 9.78249 4.23801 9.87104 4.10946 9.91485 3.95924C 9.9646 3.78866 9.96718 3.52523 9.75436 3.32233L 9.06432 4.04609ZM 2.28484 8.04866C 1.9583 8.20433 1.68411 8.40956 1.50545 8.64983C 1.33514 8.87886 1.19076 9.23772 1.36541 9.59913C 1.53591 9.95196 1.90473 10.0824 2.22541 10.115C 2.56324 10.1494 2.98247 10.0954 3.4747 9.95434L 3.19928 8.99302C 2.77301 9.11515 2.49037 9.13681 2.32653 9.12016C 2.14555 9.10177 2.21292 9.05462 2.26579 9.16403C 2.32281 9.28202 2.24461 9.33167 2.3079 9.24655C 2.36284 9.17267 2.48967 9.05883 2.71516 8.95134L 2.28484 8.04866ZM 3.4747 9.95434C 4.3218 9.71165 6.15298 8.90227 7.68495 8.10095C 8.45411 7.69863 9.17394 7.28491 9.67264 6.93065C 9.91566 6.75801 10.1398 6.57632 10.2866 6.39789C 10.357 6.31233 10.447 6.18369 10.4833 6.02217C 10.5277 5.82453 10.4838 5.59678 10.3064 5.42759L 9.61635 6.15136C 9.5079 6.04796 9.48513 5.90299 9.5076 5.80297C 9.52195 5.73908 9.54701 5.7229 9.51444 5.76247C 9.45532 5.83431 9.32128 5.95361 9.09352 6.11541C 8.65066 6.43001 7.9784 6.81892 7.22146 7.21485C 5.70125 8.01001 3.94422 8.77959 3.19928 8.99302L 3.4747 9.95434ZM 10.3064 5.42759C 10.0618 5.19442 9.7435 5.20599 9.54775 5.24055C 9.3328 5.2785 9.10366 5.37057 8.8813 5.48334C 8.4307 5.71186 7.89867 6.08211 7.36575 6.52245C 6.30523 7.39876 5.1456 8.63261 4.55028 9.76778L 5.43589 10.2322C 5.94464 9.26212 6.99313 8.12756 8.00273 7.29334C 8.50487 6.87842 8.9734 6.55788 9.3336 6.37521C 9.51663 6.28239 9.64545 6.23877 9.72162 6.22532C 9.81697 6.20848 9.7229 6.25295 9.61635 6.15136L 10.3064 5.42759Z"/>
</defs>
</svg>
