<svg width="58" height="16" viewBox="0 0 58 16" version="1.1" xmlns="http://www.w3.org/2000/svg" xmlns:xlink="http://www.w3.org/1999/xlink">
<title>Vector 4</title>
<desc>Created using Figma</desc>
<g id="Canvas" transform="translate(-9587 -1210)">
<g id="Vector 4" opacity="0.6">
<use xlink:href="#path0_stroke" transform="translate(9587 1211.08)" fill="#000AFF"/>
</g>
</g>
<defs>
<path id="path0_stroke" d="M 52 8.42217L 52.4852 8.54348L 52.4881 8.53064L 52 8.42217ZM 55.5 11.4222L 55.0221 11.2752L 55.5 11.4222ZM 5 9.92224L 4.52566 9.76413L 5 9.92224ZM 8.50173 10.3807C 8.4387 11.137 8.42034 11.707 8.4485 12.1076C 8.46238 12.3053 8.48925 12.4905 8.54177 12.6457C 8.58714 12.7798 8.69511 13.0209 8.96114 13.1232C 9.24895 13.2339 9.49406 13.1005 9.61033 13.017C 9.7373 12.9258 9.84826 12.7996 9.9419 12.6774C 10.1337 12.4269 10.3447 12.0689 10.5652 11.6592C 11.0083 10.8363 11.5487 9.6927 12.1203 8.53401C 12.6978 7.3633 13.3134 6.16414 13.924 5.18717L 13.076 4.65717C 12.4366 5.6802 11.8022 6.91855 11.2235 8.09159C 10.6388 9.27666 10.1167 10.383 9.68476 11.1851C 9.46784 11.588 9.28817 11.8863 9.14794 12.0694C 9.11421 12.1134 9.08602 12.1465 9.06338 12.1703C 9.05222 12.1821 9.04333 12.1906 9.03672 12.1966C 9.03003 12.2026 9.02675 12.2049 9.02687 12.2048C 9.02689 12.2048 9.03219 12.201 9.04267 12.1957C 9.05312 12.1903 9.07127 12.1822 9.09653 12.1756C 9.15119 12.1613 9.23251 12.1562 9.32011 12.1899C 9.48458 12.2532 9.50856 12.383 9.48899 12.3252C 9.47657 12.2884 9.45754 12.2013 9.44604 12.0375C 9.42341 11.7155 9.4363 11.2074 9.49827 10.4637L 8.50173 10.3807ZM 13.924 5.18717C 14.5596 4.17013 14.9398 3.59033 15.1622 3.34092C 15.2159 3.28077 15.2371 3.26708 15.2303 3.27154C 15.2254 3.27472 15.1983 3.29228 15.1516 3.30499C 15.1014 3.31867 15.0231 3.32786 14.933 3.3015C 14.7425 3.24582 14.6848 3.09576 14.6821 3.08873C 14.6757 3.07222 14.6832 3.08514 14.6896 3.15494C 14.7163 3.44923 14.6748 4.03143 14.6181 4.96211C 14.5632 5.86398 14.5 7.03204 14.5 8.42217L 15.5 8.42217C 15.5 7.06231 15.5618 5.91786 15.6163 5.02286C 15.669 4.15667 15.7212 3.45762 15.6854 3.0644C 15.6762 2.96232 15.6583 2.84048 15.6146 2.72754C 15.5745 2.62407 15.4675 2.41591 15.2135 2.34167C 14.969 2.27018 14.7695 2.37774 14.6811 2.43584C 14.5803 2.50207 14.4912 2.59092 14.4159 2.6753C 14.1227 3.00401 13.6904 3.67421 13.076 4.65717L 13.924 5.18717ZM 14.5 8.42217C 14.5 9.10876 14.5152 9.59748 14.5535 9.91141C 14.5711 10.0561 14.5996 10.2228 14.6648 10.3584C 14.6968 10.4248 14.7691 10.5519 14.9179 10.6339C 15.1007 10.7346 15.2905 10.7112 15.425 10.6475C 15.5366 10.5946 15.611 10.5161 15.6508 10.4695C 15.696 10.4166 15.7342 10.3594 15.7659 10.3075C 15.8291 10.2036 15.8925 10.0758 15.9545 9.94225C 16.0768 9.67872 16.2301 9.3111 16.3952 8.93604C 16.7376 8.1578 17.1703 7.25388 17.7159 6.54832C 18.268 5.83419 18.8577 5.42217 19.5 5.42217L 19.5 4.42217C 18.3923 4.42217 17.5445 5.13515 16.9248 5.93664C 16.2984 6.74671 15.8249 7.74904 15.4798 8.5333C 15.3011 8.93949 15.1654 9.26718 15.0474 9.52124C 14.9893 9.64644 14.9448 9.73302 14.9116 9.78759C 14.895 9.81486 14.888 9.82291 14.8905 9.81993C 14.8922 9.81792 14.9002 9.80869 14.9147 9.79627C 14.9287 9.78433 14.956 9.7631 14.9969 9.74374C 15.0943 9.6976 15.2497 9.67489 15.4007 9.75812C 15.5176 9.82258 15.5607 9.91386 15.5659 9.92468C 15.5777 9.94918 15.5627 9.92595 15.5461 9.79036C 15.5161 9.54374 15.5 9.11058 15.5 8.42217L 14.5 8.42217ZM 19.5 5.42217C 19.7494 5.42217 19.89 5.51442 20.0076 5.70903C 20.1492 5.94347 20.2465 6.32197 20.2993 6.8544C 20.3511 7.37628 20.3555 7.98291 20.3535 8.63847C 20.3516 9.28457 20.3435 9.97707 20.3756 10.6341C 20.4076 11.2898 20.4805 11.9424 20.6521 12.5126C 20.8236 13.0825 21.1076 13.6162 21.5948 13.9737C 22.0917 14.3385 22.7272 14.4673 23.4896 14.3661C 24.242 14.2663 25.1455 13.9404 26.2339 13.3641L 25.7661 12.4803C 24.7295 13.0291 23.9455 13.2969 23.3581 13.3748C 22.7806 13.4514 22.4239 13.3419 22.1865 13.1676C 21.9392 12.9861 21.7467 12.6799 21.6096 12.2244C 21.4727 11.7692 21.4049 11.2109 21.3744 10.5853C 21.344 9.96109 21.3515 9.30202 21.3535 8.64146C 21.3555 7.99038 21.352 7.33528 21.2944 6.75559C 21.2379 6.18646 21.1242 5.62354 20.8635 5.19196C 20.5787 4.72055 20.1256 4.42217 19.5 4.42217L 19.5 5.42217ZM 26.2339 13.3641C 30.6153 11.0446 33.8039 6.30484 35.7936 3.25809C 36.2977 2.48628 36.7199 1.82986 37.0725 1.33079C 37.2482 1.08191 37.3996 0.882444 37.5286 0.733292C 37.6645 0.576161 37.7482 0.507545 37.7851 0.485791C 37.8183 0.466245 37.6742 0.555976 37.5139 0.440255C 37.4248 0.37588 37.4515 0.323796 37.4871 0.49417C 37.5497 0.7936 37.5638 1.3864 37.501 2.39102L 38.499 2.4534C 38.5612 1.45802 38.5597 0.738324 38.466 0.289706C 38.4235 0.0860565 38.3369 -0.198939 38.0993 -0.370492C 37.7906 -0.593392 37.463 -0.485108 37.2774 -0.375749C 37.0956 -0.268598 36.9254 -0.0979581 36.7722 0.0791382C 36.6121 0.264213 36.4393 0.493944 36.2557 0.753856C 35.8894 1.27235 35.4523 1.95187 34.9564 2.7113C 32.9461 5.78955 29.8847 10.2998 25.7661 12.4803L 26.2339 13.3641ZM 37.501 2.39102C 37.3756 4.39688 37.4027 5.7613 37.563 6.63009C 37.6422 7.05976 37.7635 7.42506 37.9601 7.68764C 38.1799 7.98127 38.4938 8.14072 38.8578 8.10762C 39.1707 8.07917 39.4541 7.91295 39.6851 7.73665C 39.9262 7.55275 40.1703 7.31059 40.4093 7.04727C 40.8842 6.52409 41.4024 5.84449 41.8904 5.23452L 41.1096 4.60982C 40.5976 5.24983 40.1158 5.88273 39.6688 6.37517C 39.4469 6.61967 39.2496 6.81111 39.0785 6.94166C 38.8975 7.07982 38.798 7.10893 38.7672 7.11173C 38.7616 7.11224 38.7717 7.11106 38.785 7.11742C 38.7962 7.12272 38.786 7.12221 38.7606 7.08837C 38.7013 7.00916 38.6156 6.82369 38.5464 6.44868C 38.4098 5.70811 38.3744 4.44754 38.499 2.4534L 37.501 2.39102ZM 41.8904 5.23452C 42.4057 4.59048 42.8359 3.89844 43.1936 3.37682C 43.3781 3.10781 43.5432 2.88308 43.701 2.70643C 43.8606 2.5278 43.9911 2.42314 44.0986 2.36939C 44.1932 2.32208 44.27 2.31321 44.356 2.33312C 44.4556 2.35618 44.608 2.42821 44.8205 2.62078C 45.2541 3.0137 45.8147 3.79327 46.5611 5.1616L 47.4389 4.68275C 46.6853 3.30105 46.0584 2.39312 45.492 1.87979C 45.2045 1.61925 44.9037 1.43347 44.5815 1.35888C 44.2456 1.28113 43.9318 1.33476 43.6514 1.47496C 43.3839 1.60871 43.155 1.81656 42.9552 2.04027C 42.7536 2.26597 42.5594 2.53343 42.3689 2.81129C 41.9766 3.38343 41.5943 4.00388 41.1096 4.60982L 41.8904 5.23452ZM 46.5611 5.1616C 47.3131 6.54043 47.9015 7.43419 48.3794 7.9381C 48.6149 8.18646 48.8677 8.38845 49.144 8.47532C 49.4645 8.57611 49.773 8.50747 50.0129 8.30179C 50.2174 8.12647 50.3439 7.87631 50.4307 7.65002C 50.5216 7.41316 50.5924 7.13781 50.653 6.85505C 50.714 6.5704 50.7683 6.26008 50.8218 5.95073C 50.8759 5.63796 50.9294 5.32491 50.9903 5.02023L 50.0097 4.82411C 49.9456 5.14442 49.8897 5.47199 49.8364 5.78031C 49.7825 6.09205 49.7314 6.38329 49.6752 6.64552C 49.6186 6.90963 49.5605 7.12648 49.497 7.29196C 49.4295 7.46802 49.3763 7.53037 49.3621 7.54254C 49.3616 7.54295 49.3774 7.53011 49.4072 7.52397C 49.4371 7.51782 49.4529 7.5242 49.4439 7.52137C 49.4096 7.51059 49.2992 7.45478 49.105 7.25001C 48.7235 6.84767 48.1869 6.05393 47.4389 4.68275L 46.5611 5.1616ZM 50.9903 5.02023C 51.0516 4.71376 51.1124 4.44027 51.1717 4.20218C 51.2311 3.96351 51.2882 3.76374 51.3415 3.60373C 51.3681 3.5239 51.3932 3.45597 51.4163 3.39936C 51.4397 3.34218 51.4596 3.30045 51.4752 3.27164C 51.483 3.25749 51.4887 3.24829 51.4921 3.24307C 51.4958 3.23762 51.4955 3.23864 51.491 3.24387C 51.4867 3.24873 51.4745 3.26204 51.4535 3.278C 51.4325 3.29388 51.3966 3.317 51.3456 3.33399C 51.2924 3.35175 51.2269 3.36123 51.1552 3.35157C 51.0838 3.34195 51.0246 3.31585 50.9802 3.28668C 50.9376 3.25872 50.9106 3.22938 50.8959 3.211C 50.881 3.19245 50.8737 3.17884 50.8718 3.17529C 50.869 3.16977 50.8756 3.18154 50.8867 3.22182C 50.8972 3.25998 50.9089 3.31349 50.9206 3.3853C 50.944 3.52939 50.9642 3.72699 50.9783 3.98552C 50.9923 4.24272 51 4.55363 51 4.92217L 52 4.92217C 52 4.1656 51.9689 3.60161 51.9076 3.22462C 51.8783 3.04458 51.8352 2.86046 51.759 2.71393C 51.7213 2.64139 51.6521 2.5316 51.5293 2.45094C 51.3825 2.35447 51.2009 2.32813 51.0294 2.38533C 50.8861 2.43309 50.7909 2.52521 50.7378 2.58606C 50.68 2.65222 50.6339 2.72564 50.597 2.79341C 50.523 2.92932 50.4555 3.0995 50.3928 3.2875C 50.2662 3.66735 50.1365 4.19023 50.0097 4.82411L 50.9903 5.02023ZM 51 4.92217C 51 5.66083 50.9692 6.49515 50.9379 7.27721C 50.9069 8.05197 50.875 8.78436 50.875 9.29717C 50.875 9.54643 50.8821 9.77815 50.9087 9.94318C 50.9158 9.98697 50.9259 10.0374 50.9416 10.0881C 50.9552 10.1319 50.9837 10.2126 51.0443 10.2915C 51.1096 10.3767 51.2558 10.5094 51.4833 10.5023C 51.6806 10.4962 51.8064 10.3854 51.8536 10.3382C 51.9497 10.242 52.008 10.1166 52.0408 10.0415C 52.0819 9.94735 52.1238 9.83131 52.1672 9.69697C 52.2544 9.42703 52.3592 9.04707 52.4851 8.54344L 51.5149 8.3009C 51.3908 8.79725 51.2925 9.15166 51.2156 9.38953C 51.177 9.50909 51.1466 9.59031 51.1242 9.64166C 51.0935 9.71206 51.0971 9.6804 51.1464 9.6311C 51.1702 9.60734 51.2745 9.50831 51.4522 9.50278C 51.66 9.49632 51.7883 9.61852 51.8376 9.68268C 51.882 9.74061 51.8961 9.78983 51.8969 9.79222C 51.8998 9.80159 51.8987 9.80071 51.896 9.78395C 51.8835 9.7068 51.875 9.5479 51.875 9.29717C 51.875 8.81 51.9056 8.10491 51.9371 7.31718C 51.9683 6.53674 52 5.68355 52 4.92217L 51 4.92217ZM 52.4881 8.53064C 52.7362 7.41407 52.983 6.45869 53.2125 5.7092C 53.4459 4.94659 53.6502 4.43536 53.8037 4.17948C 53.8403 4.11848 53.8652 4.08725 53.8764 4.07518C 53.8926 4.0577 53.8646 4.09597 53.789 4.12119C 53.6853 4.15574 53.5585 4.14308 53.4581 4.07536C 53.3838 4.02531 53.3656 3.97278 53.375 3.99306C 53.3933 4.03223 53.4299 4.15522 53.458 4.41534C 53.4846 4.66251 53.5 4.99465 53.5 5.42224L 54.5 5.42224C 54.5 4.97483 54.4841 4.60385 54.4522 4.30805C 54.4217 4.0252 54.3723 3.76538 54.2812 3.57017C 54.236 3.47326 54.1572 3.34065 54.017 3.24616C 53.8507 3.13401 53.6526 3.11257 53.4728 3.1725C 53.3209 3.22312 53.2119 3.32096 53.1426 3.39576C 53.0684 3.47597 53.0034 3.56974 52.9463 3.66498C 52.7248 4.0341 52.4916 4.64785 52.2563 5.41648C 52.017 6.19822 51.7638 7.18031 51.5119 8.3137L 52.4881 8.53064ZM 53.5 5.42224C 53.5 7.13157 53.3747 10.31 53.5011 12.2055C 53.5328 12.6807 53.5818 13.1083 53.6616 13.4252C 53.7004 13.5791 53.7558 13.747 53.8452 13.8862C 53.9319 14.021 54.1292 14.2398 54.4551 14.218C 54.7305 14.1997 54.9125 14.0127 55.0057 13.899C 55.1151 13.7655 55.2157 13.5908 55.3118 13.3911C 55.5061 12.9877 55.7257 12.3889 55.9779 11.5693L 55.0221 11.2752C 54.7743 12.0806 54.5721 12.6224 54.4108 12.9573C 54.3292 13.1268 54.2687 13.2206 54.2321 13.2653C 54.1793 13.3299 54.2304 13.2308 54.3886 13.2203C 54.4809 13.2141 54.5615 13.2428 54.6176 13.2804C 54.6662 13.313 54.6861 13.3449 54.6865 13.3456C 54.688 13.3479 54.6811 13.3373 54.6693 13.3063C 54.658 13.2765 54.645 13.2354 54.6313 13.181C 54.5744 12.955 54.5297 12.6013 54.4989 12.139C 54.3753 10.2845 54.5 7.21292 54.5 5.42224L 53.5 5.42224ZM 55.9779 11.5693C 56.7801 8.96199 57.2646 7.77019 57.5905 7.23078C 57.7513 6.9645 57.8344 6.92554 57.8363 6.92465C 57.8424 6.9218 57.8185 6.92224 58 6.92224L 58 5.92224C 57.9315 5.92224 57.6701 5.89768 57.4106 6.01982C 57.1468 6.14392 56.9362 6.37994 56.7345 6.71366C 56.3354 7.37423 55.8199 8.68244 55.0221 11.2752L 55.9779 11.5693ZM 0 6.92224C -0.0001278 6.92224 0.0826042 6.92956 0.266084 7.09128C 0.436389 7.24139 0.63053 7.46835 0.847495 7.75985C 1.29805 8.36517 1.72159 9.06657 2.21388 9.77112C 2.44754 10.1055 2.68921 10.4277 2.93199 10.6915C 3.167 10.9469 3.44186 11.1913 3.7499 11.3156C 3.91128 11.3807 4.09503 11.4183 4.29112 11.3956C 4.49041 11.3725 4.67023 11.2908 4.82496 11.1663C 5.11677 10.9316 5.31899 10.5464 5.47434 10.0804L 4.52566 9.76413C 4.38934 10.1731 4.26334 10.3347 4.1982 10.3871C 4.17446 10.4062 4.16864 10.4031 4.17608 10.4022C 4.18032 10.4018 4.16603 10.4052 4.12416 10.3883C 4.02568 10.3485 3.87318 10.2375 3.66781 10.0143C 3.47021 9.79961 3.25849 9.52021 3.0336 9.19836C 2.60881 8.59041 2.09464 7.76057 1.64967 7.16276C 1.41888 6.85269 1.17581 6.56012 0.927303 6.34109C 0.69197 6.13367 0.374289 5.92224 0 5.92224L 0 6.92224ZM 5.47434 10.0804C 6.09451 8.21985 6.65837 7.10015 7.12397 6.51401C 7.35761 6.21989 7.53227 6.10415 7.63449 6.06687C 7.70642 6.04065 7.74436 6.04857 7.79701 6.08438C 7.8752 6.13757 7.98795 6.26504 8.10467 6.51737C 8.21815 6.76269 8.31787 7.08822 8.39386 7.48386C 8.5457 8.27437 8.59257 9.29053 8.50173 10.3807L 9.49827 10.4637C 9.59507 9.3022 9.54826 8.19253 9.37591 7.29523C 9.28981 6.84697 9.1698 6.4381 9.01227 6.09755C 8.85799 5.76401 8.64847 5.45414 8.35945 5.25755C 8.0449 5.04358 7.6707 4.98927 7.29192 5.12738C 6.94344 5.25445 6.62882 5.52962 6.34095 5.89202C 5.76354 6.61891 5.15549 7.87464 4.52566 9.76413L 5.47434 10.0804Z"/>
</defs>
</svg>
